<svg width="1024" height="1024" viewBox="0 0 1024 1024" fill="none" xmlns="http://www.w3.org/2000/svg">
<circle cx="512" cy="512" r="512" fill="#1DB5D3"/>
<g clip-path="url(#clip0_1_53)">
<path d="M358.59 245.222C364.044 241.426 367.266 235.213 367.266 228.562V155.321C367.266 148.694 364.044 142.459 358.59 138.661C353.159 134.865 346.188 133.944 339.953 136.244L295.589 152.513V231.371L339.953 247.639C346.188 249.939 353.161 249.019 358.59 245.222Z" fill="white"/>
<path d="M542.213 245.222C547.666 249.019 554.616 249.939 560.851 247.661L605.238 231.393V152.514L560.851 136.246C554.616 133.944 547.666 134.865 542.213 138.662C536.782 142.459 533.538 148.696 533.538 155.323V228.564C533.538 235.213 536.782 241.449 542.213 245.222Z" fill="white"/>
<path d="M812.422 518.861C793.347 499.762 766.815 487.912 737.685 487.912C708.554 487.912 682.046 499.762 662.947 518.861C643.848 537.936 631.998 564.468 631.998 593.598C631.998 622.729 643.848 649.26 662.947 668.336C663.43 668.797 663.96 669.21 664.443 669.693L601.119 784.329C591.409 800.966 579.558 812.563 567.363 820.041C555.144 827.543 542.558 830.879 531.237 830.879C524.082 830.879 517.408 829.544 511.471 827.104C502.52 823.399 495.088 817.394 489.267 808.029C483.491 798.641 479.303 785.456 479.28 767.07C479.28 717.714 479.28 662.949 479.28 603.629C491.499 600.591 502.544 595.897 512.024 590.214C520.307 585.268 527.51 579.607 533.654 573.647C539.798 567.663 544.883 561.383 548.933 554.825C549.048 554.617 549.877 553.352 551.027 551.695C553.236 548.542 556.757 543.711 561.106 537.751C576.477 516.857 602.639 482.135 628.757 445.985C641.85 427.9 654.942 409.444 666.77 392.004C678.597 374.585 689.159 358.247 697.351 344.027C711.595 319.2 719.764 292.623 719.809 266.321C719.809 252.883 717.6 239.469 712.654 226.835C708.949 217.354 703.679 208.334 696.868 200.351C686.675 188.316 673.053 178.789 657.222 172.578C647.719 168.85 637.364 166.41 626.365 164.938V223.798C628.827 224.374 631.151 224.972 633.245 225.708C638.883 227.618 643.231 229.966 646.683 232.519C651.861 236.409 655.244 240.734 657.752 246.187C660.238 251.618 661.687 258.313 661.687 266.321C661.756 280.151 657.015 297.661 646.96 315.057C638.447 329.877 625.537 349.55 611.018 370.535C589.204 402.082 563.664 436.781 542.563 465.199C532.025 479.419 522.59 492.075 515.227 502.085C511.521 507.1 508.346 511.427 505.769 515.04C504.457 516.857 503.307 518.491 502.295 519.986C501.26 521.505 500.362 522.817 499.465 524.313C498.245 526.292 496.058 529.123 493.113 531.975C488.695 536.302 482.597 540.696 475.396 543.849C468.171 547.002 459.864 549.049 450.222 549.073C437.406 549.049 426.82 545.415 418.237 540.328C413.98 537.774 410.276 534.851 407.331 531.975C404.386 529.121 402.2 526.292 401.003 524.313C399.784 522.357 398.586 520.608 397.092 518.446C394.33 514.487 390.649 509.449 386.138 503.328C370.422 481.95 344.535 447.551 318.787 411.954C305.925 394.143 293.131 376.103 281.763 359.352C270.42 342.646 260.456 327.183 253.484 315.057C243.429 297.661 238.688 280.151 238.757 266.299C238.757 259.211 239.931 253.114 241.91 248.029C243.407 244.233 245.362 240.965 247.847 238.02C251.598 233.647 256.659 229.805 264.483 226.698C267.405 225.548 270.719 224.512 274.447 223.707V164.824C265.358 166.022 256.683 167.884 248.583 170.646C237.718 174.305 227.777 179.414 219.102 185.857C206.056 195.498 196.07 208.176 189.765 222.143C183.414 236.11 180.63 251.204 180.63 266.299C180.699 292.623 188.845 319.2 203.112 344.027C213.076 361.355 226.583 381.857 241.631 403.601C264.134 436.16 289.999 471.252 311.214 499.83C321.799 514.119 331.233 526.775 338.434 536.555C342.047 541.434 345.085 545.599 347.385 548.843C348.535 550.43 349.503 551.812 350.215 552.869C350.928 553.904 351.435 554.686 351.504 554.803C355.577 561.384 360.639 567.665 366.783 573.648C375.987 582.577 387.608 590.861 401.644 597.05C407.673 599.72 414.254 601.86 421.156 603.562C421.156 662.93 421.156 717.717 421.156 767.073C421.156 785.343 424.01 802.209 429.533 817.304C437.771 839.969 452.29 858.447 470.375 870.664C488.439 882.974 509.745 889.027 531.237 889.003C553.925 889.003 576.935 882.352 597.76 869.605C618.607 856.811 637.246 837.874 651.466 813.367L651.627 813.114L715.78 696.982C722.868 698.454 730.184 699.284 737.686 699.284C766.817 699.284 793.348 687.433 812.423 668.334C831.522 649.259 843.373 622.728 843.373 593.597C843.373 564.466 831.521 537.936 812.422 518.861ZM790.009 645.9C776.572 659.314 758.163 667.552 737.685 667.576C717.206 667.552 698.798 659.316 685.382 645.9C671.966 632.484 663.706 614.077 663.706 593.597C663.706 573.117 671.966 554.71 685.382 541.294C698.798 527.878 717.204 519.642 737.685 519.618C758.163 519.642 776.572 527.878 790.009 541.294C803.402 554.709 811.662 573.117 811.662 593.597C811.662 614.077 803.402 632.485 790.009 645.9Z" fill="white"/>
<path d="M752.803 556.551C747.878 554.526 742.724 553.582 737.685 553.582C721.899 553.558 706.989 562.97 700.638 578.479L715.319 584.462C719.139 575.097 728.159 569.437 737.686 569.437C740.724 569.437 743.806 569.989 746.799 571.208C756.187 575.05 761.848 584.07 761.848 593.597C761.848 596.635 761.296 599.717 760.053 602.732L774.734 608.715C776.759 603.791 777.725 598.636 777.703 593.597C777.723 577.837 768.311 562.879 752.803 556.551Z" fill="white"/>
</g>
<defs>
<clipPath id="clip0_1_53">
<rect width="754" height="754" fill="white" transform="translate(135 135)"/>
</clipPath>
</defs>
</svg>
